<svg width="17" height="17" viewBox="0 0 17 17" fill="none" xmlns="http://www.w3.org/2000/svg">
<path d="M14.2421 0.292893C14.6326 -0.0976311 15.2666 -0.0976311 15.6572 0.292893L15.7792 0.414964C16.1697 0.805488 16.1697 1.43948 15.7792 1.83L9.57317 8.03606L15.7792 14.2421C16.1697 14.6326 16.1697 15.2666 15.7792 15.6572L15.6572 15.7792C15.2666 16.1697 14.6326 16.1697 14.2421 15.7792L8.03606 9.57317L1.83 15.7792C1.43948 16.1697 0.805488 16.1697 0.414964 15.7792L0.292893 15.6572C-0.0976311 15.2666 -0.0976311 14.6326 0.292893 14.2421L6.49895 8.03606L0.292893 1.83C-0.0976311 1.43948 -0.0976311 0.805488 0.292893 0.414964L0.414964 0.292893C0.805488 -0.0976311 1.43948 -0.0976311 1.83 0.292893L8.03606 6.49895L14.2421 0.292893Z" fill="white"/>
</svg>
