<svg width="16" height="20" viewBox="0 0 16 20" fill="none" xmlns="http://www.w3.org/2000/svg">
<path d="M15 0C15.5523 4.12e-06 16 0.447718 16 1V18.5C15.1716 18.5 14.5 19.1716 14.5 20H13.5C13.5 19.1716 12.8284 18.5 12 18.5C11.1716 18.5 10.5 19.1716 10.5 20H9.5C9.49995 19.1716 8.82839 18.5 8 18.5C7.1716 18.5 6.50005 19.1716 6.5 20H5.5C5.49995 19.1716 4.82839 18.5 4 18.5C3.1716 18.5 2.50005 19.1716 2.5 20H1.5C1.49995 19.1716 0.828395 18.5 0 18.5V1C0 0.447715 0.447715 0 1 0H15ZM7.85352 3.87988C4.94921 3.42 2.49539 5.82592 2.85938 8.71094C3.08944 10.5322 4.5279 12.0473 6.33008 12.3828C7.4706 12.5935 8.55341 12.3439 9.41602 11.7881L11.5254 13.8975C11.8993 14.2711 12.5131 14.271 12.8965 13.8877C13.2701 13.5139 13.2701 12.9002 12.8965 12.5264L10.7871 10.4268C11.3238 9.5737 11.5825 8.54831 11.4004 7.43652C11.1032 5.644 9.65569 4.16745 7.85352 3.87988ZM7.05859 5.70605C8.35736 5.70605 9.41202 6.75984 9.41211 8.05859C9.41211 9.35742 8.35742 10.4121 7.05859 10.4121C5.75984 10.412 4.70605 9.35736 4.70605 8.05859C4.70614 6.7599 5.7599 5.70614 7.05859 5.70605Z" fill="white"/>
</svg>
